<svg xmlns="http://www.w3.org/2000/svg" width="81.427" height="124.272" viewBox="0 0 81.427 124.272"><defs><style>.a{fill:#c8d3db;}</style></defs><g transform="translate(-550.357 -27.007)"><path class="a" d="M582.39,71.333l23.331,5.991s-.91-8.708-9.773-10.205C586.489,65.52,582.39,71.333,582.39,71.333Z" transform="translate(-18.987 -23.611)"/><path class="a" d="M582.5,144.443l-23.331-5.991s.91,8.708,9.773,10.205C578.4,150.256,582.5,144.443,582.5,144.443Z" transform="translate(-5.221 -66.06)"/><g transform="translate(550.358 46.657)"><path class="a" d="M554.851,98.59l5.99-23.331s-8.708.911-10.205,9.774C549.038,94.491,554.851,98.59,554.851,98.59Z" transform="translate(-550.358 -75.259)"/><path class="a" d="M627.961,98.485l-5.99,23.331s8.708-.911,10.205-9.774C633.774,102.583,627.961,98.485,627.961,98.485Z" transform="translate(-592.807 -89.026)"/></g><path class="a" d="M596.535,89.114,608.4,96.637a6.943,6.943,0,0,0-3.585-7.421C599.855,86.627,596.535,89.114,596.535,89.114Z" transform="translate(-27.372 -36.177)"/><path class="a" d="M584.458,127.627,572.594,120.1a6.943,6.943,0,0,0,3.584,7.421C581.138,130.114,584.458,127.627,584.458,127.627Z" transform="translate(-13.119 -55.184)"/><g transform="translate(559.335 51.781)"><path class="a" d="M573.478,99.809,581,87.945a6.943,6.943,0,0,0-7.421,3.585C570.991,96.489,573.478,99.809,573.478,99.809Z" transform="translate(-572.402 -87.84)"/><path class="a" d="M611.991,111.887l-7.523,11.864a6.943,6.943,0,0,0,7.421-3.585C614.478,115.207,611.991,111.887,611.991,111.887Z" transform="translate(-591.409 -102.094)"/></g><circle class="a" cx="3.547" cy="3.547" r="3.547" transform="translate(566.871 59.545)"/><path class="a" d="M712.318,112.039l13.291,20.089s5.164-7.071-.407-14.125C719.257,110.475,712.318,112.039,712.318,112.039Z" transform="translate(-96.003 -50.324)"/><path class="a" d="M664.584,161.691,651.293,141.6s-5.164,7.071.407,14.125C657.645,163.255,664.584,161.691,664.584,161.691Z" transform="translate(-58.539 -67.927)"/><g transform="translate(594.904 57.029)"><path class="a" d="M659.878,116.2l20.089-13.291s-7.071-5.164-14.125.407C658.314,109.259,659.878,116.2,659.878,116.2Z" transform="translate(-659.743 -100.728)"/><path class="a" d="M709.53,163.932l-20.089,13.291s7.07,5.164,14.125-.407C711.094,170.871,709.53,163.932,709.53,163.932Z" transform="translate(-677.347 -138.193)"/></g><path class="a" d="M714.223,131.221l3.757,13.537a6.944,6.944,0,0,0,2.317-7.909C718.354,131.6,714.223,131.221,714.223,131.221Z" transform="translate(-97.133 -61.774)"/><path class="a" d="M676.554,150.634,672.8,137.1a6.944,6.944,0,0,0-2.317,7.909C672.423,150.252,676.554,150.634,676.554,150.634Z" transform="translate(-70.929 -65.257)"/><g transform="translate(603.347 65.063)"><path class="a" d="M680.475,126.992l13.537-3.757a6.943,6.943,0,0,0-7.909-2.317C680.857,122.861,680.475,126.992,680.475,126.992Z" transform="translate(-680.475 -120.455)"/><path class="a" d="M699.888,164.661l-13.537,3.756a6.943,6.943,0,0,0,7.909,2.317C699.506,168.791,699.888,164.661,699.888,164.661Z" transform="translate(-683.958 -146.659)"/></g><circle class="a" cx="3.547" cy="3.547" r="3.547" transform="translate(607.665 74.275)"/><path class="a" d="M675.212,30.553l13.635,11.315s2.131-6.078-3.294-9.859C679.765,27.975,675.212,30.553,675.212,30.553Z" transform="translate(-74.008 -1.621)"/><path class="a" d="M653.765,76.043,640.13,64.728s-2.131,6.078,3.294,9.859C649.212,78.621,653.765,76.043,653.765,76.043Z" transform="translate(-52.969 -22.36)"/><g transform="translate(587.708 27.007)"><path class="a" d="M642.884,41.054,654.2,27.419s-6.078-2.13-9.858,3.294C640.306,36.5,642.884,41.054,642.884,41.054Z" transform="translate(-642.073 -27.007)"/><path class="a" d="M688.374,62.5,677.059,76.137s6.078,2.131,9.858-3.294C690.952,67.055,688.374,62.5,688.374,62.5Z" transform="translate(-662.811 -48.047)"/></g><path class="a" d="M680.6,44.631l5.527,8.731a5.107,5.107,0,0,0-.053-6.062C683.586,44.02,680.6,44.631,680.6,44.631Z" transform="translate(-77.2 -10.42)"/><path class="a" d="M659.605,65.523l-5.527-8.731a5.107,5.107,0,0,0,.053,6.062C656.616,66.134,659.605,65.523,659.605,65.523Z" transform="translate(-60.891 -17.655)"/><g transform="translate(594.133 32.129)"><path class="a" d="M657.894,46.107l8.731-5.527a5.107,5.107,0,0,0-6.062.053C657.283,43.118,657.894,46.107,657.894,46.107Z" transform="translate(-657.849 -39.584)"/><path class="a" d="M678.786,67.1l-8.731,5.527a5.107,5.107,0,0,0,6.062-.053C679.4,70.088,678.786,67.1,678.786,67.1Z" transform="translate(-665.084 -55.893)"/></g><circle class="a" cx="2.609" cy="2.609" r="2.609" transform="translate(598.431 38.75)"/><path class="a" d="M642.675,292.438h-5.681l-2.572,16.177h10.825Z" transform="translate(-49.83 -157.337)"/><rect class="a" width="5.908" height="4.134" transform="translate(587.051 131.849)"/><path class="a" d="M631.664,284.3l-13.225,4.966v-9.931Z" transform="translate(-40.356 -149.569)"/><path class="a" d="M644.513,284.3l13.225,4.966v-9.931Z" transform="translate(-55.811 -149.569)"/><path class="a" d="M599.616,159.34a10.163,10.163,0,0,0,8.019-3.572s6.327,0,10.087-3.983c0,0-4.1,16.036,16.712,19.189l-12.1,36.416h-6.254l-16.46-48.049" transform="translate(-29.198 -73.963)"/></g></svg>