<svg xmlns="http://www.w3.org/2000/svg" width="112.117" height="104.115" viewBox="0 0 112.117 104.115"><defs><style>.a{fill:#e0dcc1;}</style></defs><path class="a" d="M349.762,608.07s-11.431-11.718-15.669-11.655L348.361,609.9s-2.2,3.987,3.81,9.656a68.517,68.517,0,0,0,15.207,28.023s-14.85.583-26.071,11.65-7.642,17.2-22.889,24.246c0,0,27.566-3.961,34.5-11.014l-2.391,3.47a63.961,63.961,0,0,0,19.851-4.544l-2.621,2.631s7.52-.282,12.485-4.087c0,0,9.73,4.53,15.48-.474,0,0,11.232,1.759,7.295-15.975,0,0,3.717-3.659,3.477-13.566,0,0-.956,1.573-1.913,1.813,0,0,1.856-7.336,1.924-10.285.072-3.143,6.512-9.309,7.8-24.985,0,0-7.328,8.721-16.656,12.548s-15.965,16.331-17.789,21.321c0,0-8.146-1.632-13.5-7.846s-7.112-9.068-7.934-13S358.323,606.465,349.762,608.07Z" transform="translate(-318.418 -596.415)"/><path class="a" d="M377.42,656.163s4.654,19.619,30.221,30.334a12.745,12.745,0,0,0-7.919-6.265l2.106-.353a36.434,36.434,0,0,1-13.816-10.9C382.262,661.338,380.71,654.578,377.42,656.163Z" transform="translate(-304.508 -582.383)"/><path class="a" d="M383.522,654.431s6.38,17.75,31.664,25.087a12.068,12.068,0,0,0-8.128-5.011l1.957-.544a34.659,34.659,0,0,1-14.177-8.713C388.627,658.741,386.477,652.62,383.522,654.431Z" transform="translate(-303.069 -582.813)"/></svg>