<svg xmlns="http://www.w3.org/2000/svg" width="109.358" height="85.755" viewBox="0 0 109.358 85.755"><defs><style>.a{fill:#dbd3ce;}</style></defs><g transform="translate(-43.092 234.781)"><path class="a" d="M123.441-219.065s-.545-3.051.115-4.568c.86-1.975,2.633-2.573,3.1-4.189a7.1,7.1,0,0,0-1.525-5.841,8.552,8.552,0,0,0-.863-.97c-.047-.049-.093-.1-.14-.149v.007l-.006-.006v.011l-.01-.01a7.784,7.784,0,0,1-.61,3.766c-.755,1.339-1.812,2.1-2.744,4.3a5.483,5.483,0,0,0,.259,5.046A9.988,9.988,0,0,0,123.441-219.065Z" transform="translate(-47.311)"/><path class="a" d="M175.156-219.065s-.544-3.051.116-4.568c.86-1.975,2.633-2.573,3.1-4.189a7.1,7.1,0,0,0-1.525-5.841,8.555,8.555,0,0,0-.863-.97c-.047-.049-.093-.1-.14-.149v.007a.025.025,0,0,0-.007-.006v.011l-.01-.01a7.784,7.784,0,0,1-.61,3.766c-.755,1.339-1.812,2.1-2.744,4.3a5.483,5.483,0,0,0,.259,5.046A9.99,9.99,0,0,0,175.156-219.065Z" transform="translate(-79.012)"/><path class="a" d="M226.871-219.065s-.544-3.051.116-4.568c.859-1.975,2.633-2.573,3.1-4.189a7.1,7.1,0,0,0-1.525-5.841,8.55,8.55,0,0,0-.863-.97c-.047-.049-.093-.1-.14-.149v.007a.032.032,0,0,0-.007-.006v.011l-.01-.01a7.793,7.793,0,0,1-.61,3.766c-.755,1.339-1.812,2.1-2.744,4.3a5.482,5.482,0,0,0,.259,5.046A9.99,9.99,0,0,0,226.871-219.065Z" transform="translate(-110.713)"/><path class="a" d="M70.292-149.036h84.584a3.036,3.036,0,0,0,3.036-3.036V-172.4A21.048,21.048,0,0,0,138.136-193.4v-11.2a2.03,2.03,0,0,0-1.892-2.141h-3.217v-.8l.043-2.349.005,0a5.811,5.811,0,0,0,2.883-2.093c.069-.106.117-.221.178-.331.034-.061.068-.122.1-.184a5.5,5.5,0,0,0,.269-.618c.032-.088.063-.176.091-.264.059-.19.108-.381.147-.574.021-.1.04-.2.056-.306a6.322,6.322,0,0,0,.065-.665c0-.06.007-.121.008-.182a6.738,6.738,0,0,0-.891-3.535c-.05-.086-.112-.152-.165-.231-.106-.163-.212-.317-.32-.464,0,0,0,.009,0,.014l-.005-.009-.007-.007c-.418,4.038-1.473,4.124-2.7,5.573a6.282,6.282,0,0,0-1.027,3.284.768.768,0,0,0-.062.158c-.021.356-.027.628-.027.744v2.845h-2.707a2.03,2.03,0,0,0-1.892,2.141v11.153h-8.937V-204.6a2.03,2.03,0,0,0-1.892-2.141h-3.217v-.8l.043-2.349.005,0a5.81,5.81,0,0,0,2.882-2.093c.07-.106.117-.221.178-.331.034-.061.067-.122.1-.184a5.432,5.432,0,0,0,.269-.618c.032-.088.063-.176.091-.264.058-.19.107-.381.147-.574.021-.1.041-.2.056-.306a6.429,6.429,0,0,0,.064-.665c0-.06.007-.121.008-.182a6.742,6.742,0,0,0-.892-3.535c-.05-.086-.112-.152-.165-.231-.106-.163-.212-.317-.32-.464,0,0,0,.009,0,.014l-.006-.009-.007-.007c-.418,4.038-1.473,4.124-2.7,5.573a6.282,6.282,0,0,0-1.027,3.284.79.79,0,0,0-.062.158c-.021.356-.027.628-.027.744v2.845h-2.707a2.031,2.031,0,0,0-1.892,2.141v11.153H98.109V-204.6a2.031,2.031,0,0,0-1.892-2.141H93v-.8l.043-2.349.005,0a5.81,5.81,0,0,0,2.882-2.093c.07-.106.117-.221.178-.331.034-.061.068-.122.1-.184a5.569,5.569,0,0,0,.269-.618c.032-.088.063-.176.091-.264.059-.19.107-.381.147-.574.02-.1.04-.2.056-.306a6.424,6.424,0,0,0,.064-.665c0-.06.007-.121.008-.182a6.745,6.745,0,0,0-.891-3.535c-.051-.086-.113-.152-.165-.231-.106-.163-.212-.317-.32-.464,0,0,0,.009,0,.014l-.006-.009-.007-.007c-.418,4.038-1.473,4.124-2.7,5.573a6.286,6.286,0,0,0-1.027,3.284.815.815,0,0,0-.062.158c-.021.356-.027.628-.027.744v2.845H88.924a2.031,2.031,0,0,0-1.892,2.141v11.2a21.066,21.066,0,0,0-19.776,21.025v20.305A3.036,3.036,0,0,0,70.292-149.036Z" transform="translate(-14.812 -9.463)"/><path class="a" d="M3.6,0H105.763a3.6,3.6,0,0,1,3.6,3.6v0a3.6,3.6,0,0,1-3.6,3.6H3.6A3.6,3.6,0,0,1,0,3.6v0A3.6,3.6,0,0,1,3.6,0Z" transform="translate(43.092 -156.217)"/></g></svg>